<svg xmlns="http://www.w3.org/2000/svg" width="260" height="152" fill="none"><rect width="260" height="152" fill="#fff" rx="10"/><path fill="#356854" stroke="#2B5444" stroke-width="2" d="M10 1h240a9 9 0 0 1 9 9v9H1v-9a9 9 0 0 1 9-9Z"/><path fill="#F8F9FA" d="M-.006 34.562H260v15H-.006zM-.006 64.561H260v15H-.006zM-.006 94.561H260v15H-.006zM-.006 124.562H260v15H-.006z"/><path fill="#fff" d="M9.2 7.4h6v1.2h-2.4v6h-1.2v-6H9.2z"/><path fill="#fff" d="M14.6 11V9.8h4.2V11h-1.5v3.6h-1.2V11z"/><path fill="#fff" fill-rule="evenodd" d="M72 7h4c2.207 0 4 1.793 4 4s-1.793 4-4 4h-4c-2.207 0-4-1.793-4-4s1.793-4 4-4m0 7h4c1.653 0 3-1.347 3-3s-1.347-3-3-3h-4c-1.653 0-3 1.347-3 3s1.347 3 3 3m5.333-3.667-2 2-2-2zM137.997 8c0 1.107-.893 2-2 2s-2-.893-2-2 .893-2 2-2 2 .893 2 2m-1 0a.999.999 0 1 0-2 0 .999.999 0 1 0 2 0m-1 2.667a6.56 6.56 0 0 1 3.353.913c.407.233.647.68.647 1.147V14h-8v-1.273c0-.467.24-.914.647-1.147a6.56 6.56 0 0 1 3.353-.913m-3 2.06V13h6v-.28c0-.113-.053-.227-.147-.28a5.66 5.66 0 0 0-2.853-.773c-1 0-1.987.266-2.853.78a.33.33 0 0 0-.147.28M196 6h4c2.207 0 4 1.793 4 4s-1.793 4-4 4h-4c-2.207 0-4-1.793-4-4s1.793-4 4-4m0 7h4c1.653 0 3-1.347 3-3s-1.347-3-3-3h-4c-1.653 0-3 1.347-3 3s1.347 3 3 3m5.333-3.667-2 2-2-2z" clip-rule="evenodd"/><path fill="#fff" d="m51.38 9.64-1.75 1.751-1.752-1.751-.47.471 2.221 2.222 2.223-2.222zM116.751 9.64 115 11.391l-1.752-1.751-.471.471L115 12.333l2.222-2.222zM180.751 9.64 179 11.391l-1.752-1.751-.471.471L179 12.333l2.222-2.222zM237.418 9.64l-1.751 1.751-1.752-1.751-.471.471 2.223 2.222 2.222-2.222z"/><rect width="51" height="10" x="131.997" y="22" fill="#E8EAED" rx="5"/><rect width="51" height="10" x="131.997" y="37" fill="#E8EAED" rx="5"/><rect width="51" height="10" x="131.997" y="52" fill="#E8EAED" rx="5"/><rect width="51" height="10" x="131.997" y="67" fill="#E8EAED" rx="5"/><rect width="51" height="10" x="131.997" y="82" fill="#E8EAED" rx="5"/><rect width="51" height="10" x="131.997" y="97" fill="#E8EAED" rx="5"/><rect width="51" height="10" x="131.997" y="112" fill="#E8EAED" rx="5"/><rect width="51" height="10" x="131.997" y="127" fill="#E8EAED" rx="5"/><rect width="51" height="10" x="131.997" y="142" fill="#E8EAED" rx="5"/><path fill="#80868B" fill-rule="evenodd" d="M141 41c0 .83-.67 1.5-1.5 1.5s-1.5-.67-1.5-1.5.67-1.5 1.5-1.5 1.5.67 1.5 1.5m-.75 0a.749.749 0 1 0-1.5 0 .749.749 0 1 0 1.5 0m-.75 2c.92 0 1.78.25 2.515.685a.99.99 0 0 1 .485.86v.955h-6v-.955c0-.35.18-.685.485-.86A4.9 4.9 0 0 1 139.5 43m-2.25 1.545v.205h4.5v-.21c0-.085-.04-.17-.11-.21-.65-.38-1.39-.58-2.14-.58s-1.49.2-2.14.585a.25.25 0 0 0-.11.21M141 56c0 .83-.67 1.5-1.5 1.5s-1.5-.67-1.5-1.5.67-1.5 1.5-1.5 1.5.67 1.5 1.5m-.75 0a.749.749 0 1 0-1.5 0 .749.749 0 1 0 1.5 0m-.75 2c.92 0 1.78.25 2.515.685a.99.99 0 0 1 .485.86v.955h-6v-.955c0-.35.18-.685.485-.86A4.9 4.9 0 0 1 139.5 58m-2.25 1.545v.205h4.5v-.21c0-.085-.04-.17-.11-.21-.65-.38-1.39-.58-2.14-.58s-1.49.2-2.14.585a.25.25 0 0 0-.11.21M141 71c0 .83-.67 1.5-1.5 1.5s-1.5-.67-1.5-1.5.67-1.5 1.5-1.5 1.5.67 1.5 1.5m-.75 0a.749.749 0 1 0-1.5 0 .749.749 0 1 0 1.5 0m-.75 2c.92 0 1.78.25 2.515.685a.99.99 0 0 1 .485.86v.955h-6v-.955c0-.35.18-.685.485-.86A4.9 4.9 0 0 1 139.5 73m-2.25 1.545v.205h4.5v-.21c0-.085-.04-.17-.11-.21-.65-.38-1.39-.58-2.14-.58s-1.49.2-2.14.585a.25.25 0 0 0-.11.21M141 86c0 .83-.67 1.5-1.5 1.5s-1.5-.67-1.5-1.5.67-1.5 1.5-1.5 1.5.67 1.5 1.5m-.75 0a.749.749 0 1 0-1.5 0 .749.749 0 1 0 1.5 0m-.75 2c.92 0 1.78.25 2.515.685a.99.99 0 0 1 .485.86v.955h-6v-.955c0-.35.18-.685.485-.86A4.9 4.9 0 0 1 139.5 88m-2.25 1.545v.205h4.5v-.21c0-.085-.04-.17-.11-.21-.65-.38-1.39-.58-2.14-.58s-1.49.2-2.14.585a.25.25 0 0 0-.11.21M141 101c0 .83-.67 1.5-1.5 1.5s-1.5-.67-1.5-1.5.67-1.5 1.5-1.5 1.5.67 1.5 1.5m-.75 0a.749.749 0 1 0-1.5 0 .749.749 0 1 0 1.5 0m-.75 2c.92 0 1.78.25 2.515.685a.99.99 0 0 1 .485.86v.955h-6v-.955c0-.35.18-.685.485-.86A4.9 4.9 0 0 1 139.5 103m-2.25 1.545v.205h4.5v-.21c0-.085-.04-.17-.11-.21-.65-.38-1.39-.58-2.14-.58s-1.49.2-2.14.585a.25.25 0 0 0-.11.21M141 116c0 .83-.67 1.5-1.5 1.5s-1.5-.67-1.5-1.5.67-1.5 1.5-1.5 1.5.67 1.5 1.5m-.75 0a.749.749 0 1 0-1.5 0 .749.749 0 1 0 1.5 0m-.75 2c.92 0 1.78.25 2.515.685a.99.99 0 0 1 .485.86v.955h-6v-.955c0-.35.18-.685.485-.86A4.9 4.9 0 0 1 139.5 118m-2.25 1.545v.205h4.5v-.21c0-.085-.04-.17-.11-.21-.65-.38-1.39-.58-2.14-.58s-1.49.2-2.14.585a.25.25 0 0 0-.11.21M141 131c0 .83-.67 1.5-1.5 1.5s-1.5-.67-1.5-1.5.67-1.5 1.5-1.5 1.5.67 1.5 1.5m-.75 0a.749.749 0 1 0-1.5 0 .749.749 0 1 0 1.5 0m-.75 2c.92 0 1.78.25 2.515.685a.99.99 0 0 1 .485.86v.955h-6v-.955c0-.35.18-.685.485-.86A4.9 4.9 0 0 1 139.5 133m-2.25 1.545v.205h4.5v-.21c0-.085-.04-.17-.11-.21-.65-.38-1.39-.58-2.14-.58s-1.49.2-2.14.585a.25.25 0 0 0-.11.21M141 146c0 .83-.67 1.5-1.5 1.5s-1.5-.67-1.5-1.5.67-1.5 1.5-1.5 1.5.67 1.5 1.5m-.75 0a.749.749 0 1 0-1.5 0 .749.749 0 1 0 1.5 0m-.75 2c.92 0 1.78.25 2.515.685a.99.99 0 0 1 .485.86v.955h-6v-.955c0-.35.18-.685.485-.86A4.9 4.9 0 0 1 139.5 148m-2.25 1.545v.205h4.5v-.21c0-.085-.04-.17-.11-.21-.65-.38-1.39-.58-2.14-.58s-1.49.2-2.14.585a.25.25 0 0 0-.11.21" clip-rule="evenodd"/><rect width="51" height="10" x="70" y="22" fill="#79DBBC" rx="5"/><rect width="51" height="10" x="70" y="37" fill="#BFE5FF" rx="5"/><rect width="51" height="10" x="70" y="52" fill="#B7C7FF" rx="5"/><rect width="51" height="10" x="70" y="67" fill="#C8EFCD" rx="5"/><rect width="51" height="10" x="70" y="82" fill="#E8EAED" rx="5"/><rect width="51" height="10" x="70" y="97" fill="#E8EAED" rx="5"/><rect width="51" height="10" x="70" y="112" fill="#E8EAED" rx="5"/><rect width="51" height="10" x="70" y="127" fill="#E8EAED" rx="5"/><rect width="51" height="10" x="70" y="142" fill="#E8EAED" rx="5"/><path fill="#444746" d="M112.7 41.6h3.6l-1.8 1.8zM112.7 56.6h3.6l-1.8 1.8zM112.7 71.6h3.6l-1.8 1.8zM112.7 86.6h3.6l-1.8 1.8zM112.7 101.6h3.6l-1.8 1.8zM112.7 116.6h3.6l-1.8 1.8zM112.7 131.6h3.6l-1.8 1.8zM112.7 146.6h3.6l-1.8 1.8z"/><rect width="51" height="10" x="190.667" y="22" fill="#A1E2A0" rx="5"/><rect width="51" height="10" x="190.667" y="37" fill="#FF917D" rx="5"/><rect width="51" height="10" x="190.667" y="52" fill="#E8EAED" rx="5"/><rect width="51" height="10" x="190.667" y="67" fill="#E8EAED" rx="5"/><rect width="51" height="10" x="190.667" y="82" fill="#E8EAED" rx="5"/><rect width="51" height="10" x="190.667" y="97" fill="#E8EAED" rx="5"/><rect width="51" height="10" x="190.667" y="112" fill="#E8EAED" rx="5"/><rect width="51" height="10" x="190.667" y="127" fill="#E8EAED" rx="5"/><rect width="51" height="10" x="190.667" y="142" fill="#E8EAED" rx="5"/><path fill="#444746" d="M233.367 41.6h3.6l-1.8 1.8zM233.367 26.6h3.6l-1.8 1.8zM233.367 56.6h3.6l-1.8 1.8zM233.367 71.6h3.6l-1.8 1.8zM233.367 86.6h3.6l-1.8 1.8zM233.367 101.6h3.6l-1.8 1.8zM233.367 116.6h3.6l-1.8 1.8zM233.367 131.6h3.6l-1.8 1.8zM233.367 146.6h3.6l-1.8 1.8zM112.7 26.6h3.6l-1.8 1.8z"/><path fill="#80868B" fill-rule="evenodd" d="M141 25c0 .83-.67 1.5-1.5 1.5s-1.5-.67-1.5-1.5.67-1.5 1.5-1.5 1.5.67 1.5 1.5m-.75 0a.749.749 0 1 0-1.5 0 .749.749 0 1 0 1.5 0m-.75 2c.92 0 1.78.25 2.515.685a.99.99 0 0 1 .485.86v.955h-6v-.955c0-.35.18-.685.485-.86A4.9 4.9 0 0 1 139.5 27m-2.25 1.545v.205h4.5v-.21c0-.085-.04-.17-.11-.21-.65-.38-1.39-.58-2.14-.58s-1.49.2-2.14.585a.25.25 0 0 0-.11.21" clip-rule="evenodd"/><rect width="43.435" height="4.724" x="6.195" y="26.093" fill="#DADCE0" rx="2.362"/><rect width="43.435" height="4.724" x="6.195" y="55.65" fill="#DADCE0" rx="2.362"/><rect width="43.435" height="4.724" x="6.195" y="99.985" fill="#DADCE0" rx="2.362"/><rect width="43.435" height="4.724" x="6.195" y="114.763" fill="#DADCE0" rx="2.362"/><rect width="26.231" height="4.724" x="6.195" y="70.428" fill="#DADCE0" rx="2.362"/><rect width="26.231" height="4.724" x="6.195" y="129.542" fill="#DADCE0" rx="2.362"/><rect width="25.393" height="4.724" x="24.237" y="40.871" fill="#DADCE0" rx="2.362"/><rect width="25.393" height="4.724" x="24.237" y="85.207" fill="#DADCE0" rx="2.362"/><rect width="25.393" height="4.724" x="24.237" y="144.32" fill="#DADCE0" rx="2.362"/><rect width="14.458" height="4.724" x="6.438" y="40.871" fill="#DADCE0" rx="2.362"/><rect width="14.458" height="4.724" x="6.438" y="85.207" fill="#DADCE0" rx="2.362"/><rect width="14.458" height="4.724" x="6.438" y="144.32" fill="#DADCE0" rx="2.362"/></svg>
